<svg width="143" height="39" viewBox="0 0 143 39" fill="none" xmlns="http://www.w3.org/2000/svg">
<rect x="27.7676" width="115.233" height="39" rx="6" fill="white"/>
<g clip-path="url(#clip0_224_2844)">
<path d="M130.273 16.0179H118.704C117.426 16.0179 116.39 17.0573 116.39 18.3394V25.3037C116.39 26.5858 117.426 27.6251 118.704 27.6251H130.273C131.551 27.6251 132.587 26.5858 132.587 25.3037V18.3394C132.587 17.0573 131.551 16.0179 130.273 16.0179Z" stroke="#333333" stroke-width="2" stroke-linecap="round" stroke-linejoin="round"/>
<path d="M124.489 24.1429C125.767 24.1429 126.803 23.1036 126.803 21.8215C126.803 20.5394 125.767 19.5001 124.489 19.5001C123.211 19.5001 122.175 20.5394 122.175 21.8215C122.175 23.1036 123.211 24.1429 124.489 24.1429Z" stroke="#333333" stroke-width="2" stroke-linecap="round" stroke-linejoin="round"/>
<path d="M127.959 16.0179V13.6965C127.959 13.0808 127.715 12.4903 127.281 12.055C126.847 11.6196 126.259 11.3751 125.645 11.3751H114.076C113.462 11.3751 112.873 11.6196 112.439 12.055C112.006 12.4903 111.762 13.0808 111.762 13.6965V20.6608C111.762 21.2765 112.006 21.8669 112.439 22.3023C112.873 22.7377 113.462 22.9822 114.076 22.9822H116.39" stroke="#333333" stroke-width="2" stroke-linecap="round" stroke-linejoin="round"/>
</g>
<path d="M43.241 14.4307V22.8307H42.041V19.0867H37.217V22.8307H36.017V14.4307H37.217V18.0427H42.041V14.4307H43.241ZM48.3367 16.4107C49.2167 16.4107 49.8887 16.6267 50.3527 17.0587C50.8247 17.4907 51.0607 18.1347 51.0607 18.9907V22.8307H49.9687V21.9907C49.7767 22.2867 49.5007 22.5147 49.1407 22.6747C48.7887 22.8267 48.3687 22.9027 47.8807 22.9027C47.1687 22.9027 46.5967 22.7307 46.1647 22.3867C45.7407 22.0427 45.5287 21.5907 45.5287 21.0307C45.5287 20.4707 45.7327 20.0227 46.1407 19.6867C46.5487 19.3427 47.1967 19.1707 48.0847 19.1707H49.9087V18.9427C49.9087 18.4467 49.7647 18.0667 49.4767 17.8027C49.1887 17.5387 48.7647 17.4067 48.2047 17.4067C47.8287 17.4067 47.4607 17.4707 47.1007 17.5987C46.7407 17.7187 46.4367 17.8827 46.1887 18.0907L45.7087 17.2267C46.0367 16.9627 46.4287 16.7627 46.8847 16.6267C47.3407 16.4827 47.8247 16.4107 48.3367 16.4107ZM48.0727 22.0147C48.5127 22.0147 48.8927 21.9187 49.2127 21.7267C49.5327 21.5267 49.7647 21.2467 49.9087 20.8867V19.9987H48.1327C47.1567 19.9987 46.6687 20.3267 46.6687 20.9827C46.6687 21.3027 46.7927 21.5547 47.0407 21.7387C47.2887 21.9227 47.6327 22.0147 48.0727 22.0147ZM58.9951 16.4707V22.8307H57.8431V17.4787H55.1071L55.0351 18.8947C54.9951 19.7507 54.9191 20.4667 54.8071 21.0427C54.6951 21.6107 54.5111 22.0667 54.2551 22.4107C53.9991 22.7547 53.6431 22.9267 53.1871 22.9267C52.9791 22.9267 52.7431 22.8907 52.4791 22.8187L52.5511 21.8467C52.6551 21.8707 52.7511 21.8827 52.8391 21.8827C53.1591 21.8827 53.3991 21.7427 53.5591 21.4627C53.7191 21.1827 53.8231 20.8507 53.8711 20.4667C53.9191 20.0827 53.9631 19.5347 54.0031 18.8227L54.1111 16.4707H58.9951ZM61.6226 16.4707H62.7746V21.1027L66.6746 16.4707H67.7186V22.8307H66.5666V18.1987L62.6786 22.8307H61.6226V16.4707ZM75.4307 16.4707V22.8307H74.2787V20.2627C73.5907 20.5827 72.9067 20.7427 72.2267 20.7427C71.4347 20.7427 70.8227 20.5587 70.3907 20.1907C69.9587 19.8227 69.7427 19.2707 69.7427 18.5347V16.4707H70.8947V18.4627C70.8947 18.9027 71.0307 19.2347 71.3027 19.4587C71.5827 19.6827 71.9707 19.7947 72.4667 19.7947C73.0267 19.7947 73.6307 19.6547 74.2787 19.3747V16.4707H75.4307ZM78.0672 16.4707H79.2192V19.1707H82.8432V16.4707H83.9952V22.8307H82.8432V20.1667H79.2192V22.8307H78.0672V16.4707ZM89.5031 18.6307C90.3031 18.6387 90.9151 18.8227 91.3391 19.1827C91.7631 19.5427 91.9751 20.0507 91.9751 20.7067C91.9751 21.3947 91.7431 21.9267 91.2791 22.3027C90.8231 22.6707 90.1671 22.8507 89.3111 22.8427L86.6351 22.8307V16.4707H87.7871V18.6187L89.5031 18.6307ZM92.9231 16.4707H94.0751V22.8307H92.9231V16.4707ZM89.2271 21.9667C89.7471 21.9747 90.1391 21.8707 90.4031 21.6547C90.6751 21.4387 90.8111 21.1187 90.8111 20.6947C90.8111 20.2787 90.6791 19.9747 90.4151 19.7827C90.1511 19.5907 89.7551 19.4907 89.2271 19.4827L87.7871 19.4587V21.9547L89.2271 21.9667ZM102.463 19.6867C102.463 19.7747 102.455 19.8907 102.439 20.0347H97.2788C97.3508 20.5947 97.5948 21.0467 98.0108 21.3907C98.4348 21.7267 98.9588 21.8947 99.5828 21.8947C100.343 21.8947 100.955 21.6387 101.419 21.1267L102.055 21.8707C101.767 22.2067 101.407 22.4627 100.975 22.6387C100.551 22.8147 100.075 22.9027 99.5468 22.9027C98.8748 22.9027 98.2788 22.7667 97.7588 22.4947C97.2388 22.2147 96.8348 21.8267 96.5468 21.3307C96.2668 20.8347 96.1268 20.2747 96.1268 19.6507C96.1268 19.0347 96.2628 18.4787 96.5348 17.9827C96.8148 17.4867 97.1948 17.1027 97.6748 16.8307C98.1628 16.5507 98.7108 16.4107 99.3188 16.4107C99.9268 16.4107 100.467 16.5507 100.939 16.8307C101.419 17.1027 101.791 17.4867 102.055 17.9827C102.327 18.4787 102.463 19.0467 102.463 19.6867ZM99.3188 17.3827C98.7668 17.3827 98.3028 17.5507 97.9268 17.8867C97.5588 18.2227 97.3428 18.6627 97.2788 19.2067H101.359C101.295 18.6707 101.075 18.2347 100.699 17.8987C100.331 17.5547 99.8708 17.3827 99.3188 17.3827Z" fill="#333333"/>
<rect x="6.24756" y="17.3079" width="4.16505" height="4.19209" rx="2.08252" stroke="#DBDEE7" stroke-width="4.16505"/>
<rect x="1" y="12.0468" width="14.6602" height="14.7143" rx="7.3301" stroke="#DBDEE7" stroke-width="2"/>
<defs>
<clipPath id="clip0_224_2844">
<rect width="27.7671" height="27.8572" fill="white" transform="translate(108.291 5.57147)"/>
</clipPath>
</defs>
</svg>
