<svg width="143" height="39" viewBox="0 0 143 39" fill="none" xmlns="http://www.w3.org/2000/svg">
<rect x="27.7676" width="115.233" height="39" rx="6" fill="white"/>
<path fill-rule="evenodd" clip-rule="evenodd" d="M71.4353 14.5674C78.0422 8.63576 83.6744 11.8712 84.9741 13.489L82.5913 16.9401C82.4921 16.8688 82.3803 16.771 82.2517 16.6585C81.5374 16.0336 80.3037 14.9543 77.8256 15.4303C75.6228 15.8533 74.0593 17.4065 73.9264 19.6363C73.8104 21.584 74.2514 22.9797 76.4176 23.6268C78.6102 24.2818 81.2554 22.764 82.0497 22.009L83.6744 25.3523C82.7718 26.287 80.0033 28.4046 75.2262 27.725C71.4353 27.1858 69.7957 25.2445 69.2691 23.1954C68.4965 20.1889 68.8448 16.8931 71.4353 14.5674ZM42.8414 11.5477H39.2671C38.7256 11.5118 37.6208 11.8497 37.5342 13.489C37.4475 15.1283 37.4981 22.5123 37.5342 25.9994C37.4981 26.5027 37.7508 27.5093 39.0505 27.5093H44.3577C43.1663 27.006 40.8701 25.1798 41.2167 21.9012C41.5633 18.6226 42.4442 13.6328 42.8414 11.5477ZM56.1635 11.5477L55.622 15.4303H62.2289V15.9695L55.0804 23.3032C54.5389 23.8784 53.4341 25.5249 53.3475 27.5093H67.8611C67.1751 26.5387 65.8032 24.4033 65.8032 23.6268H60.2793V23.1954L67.7527 15.5381C68.186 15.1786 69.0308 13.8773 68.9442 11.5477H56.1635ZM91.4727 11.5477H96.5633L99.596 27.725H95.2636L94.5054 25.3523H89.4148L88.1151 27.725H83.6744L91.4727 11.5477ZM101.221 27.725L103.495 11.5477L110.319 11.5477C112.124 11.5477 116.492 12.0869 116.492 15.4303C116.492 18.2343 114.435 20.5351 113.46 21.1462V22.4404L115.951 27.725C112.872 27.725 110.097 25.8641 108.93 23.0148L108.694 22.4404H106.636L105.878 27.725H101.221ZM119.958 11.5477L117.467 27.725H124.832C127.107 27.725 132.046 26.3014 133.605 20.607C135.555 13.4889 129.273 11.5478 127.54 11.5477H119.958ZM124.181 15.4303L123.28 20.8189C123.002 22.4781 124.204 24.1101 125.803 23.5877C127.147 23.1485 128.396 22.1856 128.731 20.2835C129.232 17.4289 128.039 16.0993 127.04 15.6231C126.669 15.4465 126.249 15.4303 125.839 15.4303L124.181 15.4303ZM110.534 15.4303C109.442 15.3023 107.718 15.4303 107.718 15.4303L107.285 18.7736H109.885C111.401 18.7736 112.376 15.646 110.534 15.4303ZM93.4224 15.6459L94.5055 22.0091H90.498L93.4224 15.6459Z" fill="#1A3685"/>
<path d="M45.5479 11.6821H53.3462L51.3966 25.5946H47.0642C43.9449 25.7671 43.7427 22.2872 44.0315 20.5257L45.5479 11.6821Z" fill="#FF461A"/>
<rect x="3" y="14.1428" width="10.6602" height="10.7143" rx="5.3301" stroke="#FFC000" stroke-width="6"/>
</svg>
