<svg width="42" height="42" viewBox="0 0 42 42" fill="none" xmlns="http://www.w3.org/2000/svg">
<path fill-rule="evenodd" clip-rule="evenodd" d="M23.4128 38.7284L23.7829 38.6742L24.1407 38.6386L24.311 38.6277L24.4736 38.6231L24.627 38.6246L24.7679 38.6324L24.9925 38.6649L25.2186 38.7176L25.4416 38.7888L25.6646 38.8755L25.883 38.9778L26.0951 39.0924L26.2996 39.2194L26.4947 39.3541L26.6744 39.4997L26.8447 39.6499L27.0042 39.8032L27.1483 39.9581L27.2768 40.1145L27.3868 40.2694L27.4782 40.4227L27.5153 40.497L27.5478 40.5714L27.1916 40.6968L26.806 40.8083L26.4002 40.9044L25.9805 40.9864L25.5531 41.0515L25.1272 41.0979L24.709 41.1243L24.3064 41.132L24.1252 41.1243L23.9424 41.0964L23.7597 41.0499L23.5785 40.9864L23.3988 40.9075L23.2223 40.8145L23.0504 40.7061L22.8847 40.5869L22.7236 40.4552L22.5718 40.3127L22.4278 40.1625L22.2946 40.003L22.1722 39.8373L22.0623 39.6654L21.9663 39.4904L21.8842 39.3107L21.8486 39.2348L21.8114 39.1682L21.7727 39.1109L21.7324 39.0598L21.5884 38.8957L21.5605 38.857L21.5388 38.8151L21.5295 38.795L21.5233 38.7718L21.5171 38.7485L21.514 38.7222L21.5156 38.668L21.5249 38.6045L21.545 38.5317L21.576 38.4481L21.7897 37.951L22.0329 37.4306L22.2992 36.9288L22.4371 36.698L22.578 36.4874L22.7391 36.283L22.9187 36.0832L23.326 35.6945L23.7752 35.329L24.2491 34.9929L24.723 34.6909L25.1768 34.4307L25.5887 34.217L25.9387 34.0575L25.327 35.3321L24.963 36.0336L24.5402 36.7584L24.4504 36.8932L24.3513 37.0295L24.2429 37.1642L24.1252 37.2989L23.9997 37.4321L23.8681 37.5638L23.5831 37.8209L23.2579 38.0826L22.9621 38.2932L22.657 38.4884L22.3085 38.699L21.7355 39.0443L22.2203 38.9592L23.4128 38.7284ZM27.4239 37.1596L27.7523 37.0388L28.0713 36.935L28.2246 36.8932L28.3702 36.856L28.5096 36.8281L28.6397 36.808L28.8488 36.7941L29.0625 36.7987L29.2793 36.8204L29.4946 36.8576L29.7099 36.9071L29.922 36.9706L30.1296 37.0465L30.3293 37.1317L30.5167 37.2293L30.6964 37.333L30.8667 37.4414L31.0232 37.5545L31.1656 37.6722L31.2926 37.7914L31.4011 37.9122L31.4475 37.9726L31.4893 38.0346L31.1858 38.2173L30.8528 38.3939L30.4997 38.5596L30.1311 38.7145L29.7532 38.8554L29.3738 38.9809L28.9974 39.0862L28.6319 39.1713L28.4662 39.1992L28.2959 39.2085L28.1224 39.2023L27.9474 39.1806L27.7709 39.1435L27.5943 39.0924L27.4209 39.0273L27.2489 38.9499L27.0817 38.8616L26.9191 38.7625L26.7642 38.6525L26.6171 38.5348L26.4777 38.4078L26.3507 38.2731L26.233 38.1322L26.1292 37.985L26.0843 37.9231L26.0394 37.8689L25.9945 37.824L25.9496 37.7852L25.7916 37.6629L25.7606 37.6335L25.7327 37.6009L25.7219 37.5824L25.7111 37.5638L25.7033 37.5421L25.6956 37.5204L25.6878 37.4693L25.6863 37.4104L25.6925 37.3408L25.7064 37.2587L25.8179 36.7662L25.9542 36.2443L26.1137 35.7363L26.202 35.4993L26.2949 35.281L26.408 35.0641L26.5381 34.8473L26.8432 34.4152L27.1916 33.9955L27.5664 33.5991L27.9474 33.232L28.316 32.9083L28.6567 32.6342L28.9479 32.4205L28.6025 33.6982L28.3888 34.4075L28.124 35.1478L28.0651 35.2887L27.997 35.4312L27.9195 35.5752L27.8359 35.7192L27.743 35.8648L27.6439 36.0104L27.427 36.3L27.1746 36.602L26.9407 36.8514L26.6961 37.0868L26.4142 37.3454L25.9511 37.7698L26.377 37.5978L27.4239 37.1596ZM30.9271 35.4374L31.2245 35.2469L31.5172 35.0734L31.6581 34.9975L31.796 34.9294L31.9261 34.8706L32.05 34.8225L32.2513 34.7621L32.4619 34.7172L32.6756 34.6894L32.8956 34.677H33.1155L33.3354 34.6925L33.5522 34.7188L33.7644 34.7575L33.9673 34.8102L34.1624 34.8721L34.3483 34.9402L34.5233 35.0161L34.6859 35.0982L34.833 35.1865L34.9616 35.281L35.0189 35.329L35.0715 35.3801L34.8098 35.6263L34.5186 35.8741L34.2042 36.1157L33.8744 36.3511L33.5321 36.5741L33.1836 36.7817L32.8367 36.9691L32.496 37.1348L32.3396 37.1983L32.1739 37.2463L32.0035 37.2788L31.827 37.2974L31.6473 37.3005L31.4661 37.2896L31.2834 37.2664L31.1006 37.2293L30.9194 37.1797L30.7429 37.1193L30.5694 37.048L30.4021 36.9644L30.2426 36.8715L30.0908 36.7693L29.9499 36.6578L29.8198 36.537L29.7641 36.4859L29.7099 36.444L29.6557 36.41L29.6061 36.3821L29.4264 36.2985L29.3908 36.2768L29.3583 36.2505L29.3428 36.235L29.3304 36.2195L29.318 36.2009L29.3072 36.1808L29.2963 36.1575L29.2886 36.1328L29.2747 36.0755L29.2669 36.0058L29.2654 35.9221L29.2809 35.4142L29.3149 34.8752L29.3722 34.3409L29.4125 34.09L29.4621 33.8546L29.5302 33.6176L29.6169 33.376L29.8322 32.8851L30.0924 32.3973L30.382 31.9233L30.684 31.4804L30.9845 31.0793L31.2632 30.7355L31.5079 30.4614L31.4165 31.7871L31.3422 32.5289L31.226 33.3125L31.1951 33.4628L31.1548 33.6176L31.1083 33.7772L31.0526 33.9382L30.9906 34.1008L30.9225 34.265L30.7661 34.5964L30.5771 34.948L30.3959 35.2453L30.2023 35.5303L29.9747 35.8478L29.603 36.3666L29.9871 36.1033L30.9271 35.4374ZM33.8294 32.7147L34.0912 32.5041L34.3498 32.3121L34.5961 32.1479L34.7122 32.0798L34.8237 32.0209L35.008 31.9435L35.2001 31.88L35.3983 31.832L35.6012 31.7963L35.8072 31.7747L36.0147 31.7654L36.2191 31.7669L36.4204 31.7809L36.614 31.8103L36.803 31.8475L36.9826 31.8924L37.1545 31.9435L37.3125 32.0039L37.4581 32.0705L37.5866 32.1448L37.6455 32.1851L37.6981 32.2269L37.4751 32.4855L37.2258 32.7457L36.9532 33.0059L36.6651 33.2599L36.3662 33.5046L36.0596 33.7353L35.7514 33.946L35.4479 34.1365L35.3069 34.2123L35.1567 34.2743L35.0003 34.3223L34.8377 34.3579L34.6688 34.3796L34.4985 34.3889L34.325 34.3858L34.1516 34.3703L33.9781 34.344L33.8078 34.3053L33.639 34.2557L33.4763 34.1953L33.3184 34.1256L33.1666 34.0451L33.0257 33.9553L32.8925 33.8561L32.8352 33.8143L32.781 33.7803L32.7283 33.7539L32.6787 33.7338L32.5053 33.6749L32.4681 33.6579L32.4356 33.6362L32.4217 33.6238L32.4062 33.6099L32.3938 33.5944L32.3814 33.5758L32.3706 33.5557L32.3597 33.534L32.3427 33.4814L32.3303 33.4163L32.321 33.3389L32.29 32.8619L32.273 32.3539L32.2792 31.8506L32.2947 31.6121L32.3194 31.3875L32.3628 31.1583L32.4217 30.9229L32.5796 30.4428L32.7794 29.958L33.0086 29.4857L33.2518 29.0396L33.4949 28.6339L33.7257 28.2823L33.9301 28.0004L33.9626 29.2503L33.9595 29.9518L33.9193 30.6968L33.9038 30.8408L33.8806 30.9895L33.8511 31.1428L33.814 31.2977L33.7706 31.4572L33.721 31.6182L33.6049 31.945L33.4593 32.2935L33.3168 32.5893L33.1604 32.8758L32.9761 33.1964L32.6756 33.7199L33.0102 33.4333L33.419 33.0725L33.6235 32.8913L33.8294 32.7147ZM36.3136 29.4686L36.5227 29.1992L36.7317 28.9467L36.9377 28.7252L37.0353 28.6292L37.1313 28.544L37.2939 28.4217L37.4674 28.3117L37.6501 28.2142L37.8406 28.129L38.0358 28.0562L38.234 27.9958L38.4338 27.9462L38.6336 27.9091L38.8287 27.8874L39.0192 27.875L39.2035 27.8734L39.3816 27.8812L39.5489 27.8998L39.7037 27.9292L39.7765 27.9478L39.8462 27.9695L39.9113 27.9927L39.9717 28.0206L39.8106 28.3272L39.6232 28.6447L39.4141 28.9653L39.1896 29.2843L38.9495 29.5972L38.7017 29.8992L38.4477 30.1826L38.1937 30.4443L38.0729 30.5543L37.9397 30.6518L37.7973 30.7386L37.647 30.8129L37.4875 30.8764L37.3234 30.9291L37.1545 30.9693L36.9826 30.9988L36.8076 31.0158L36.6326 31.022L36.4592 31.0158L36.2873 30.9988L36.1185 30.9709L35.9558 30.9306L35.7979 30.8795L35.6476 30.816L35.5841 30.7897L35.5237 30.7711L35.4664 30.7587L35.4138 30.751L35.231 30.737L35.1923 30.7293L35.1567 30.7169L35.1397 30.7091L35.1226 30.6983L35.1056 30.6875L35.0901 30.672L35.0746 30.6565L35.0607 30.6364L35.0328 30.5899L35.0049 30.531L34.9801 30.4567L34.847 30.0014L34.7215 29.512L34.6193 29.0195L34.5837 28.7825L34.5604 28.558L34.5527 28.3241L34.5589 28.081L34.6084 27.5745L34.6998 27.0526L34.8206 26.5369L34.96 26.0413L35.1102 25.5844L35.2589 25.1849L35.3967 24.8596L35.6972 26.0676L35.8443 26.7506L35.9667 27.4847L35.9822 27.6287L35.993 27.779L35.9961 27.9354L35.993 28.0965L35.9713 28.4294L35.9295 28.7764L35.8629 29.1511L35.787 29.4764L35.6972 29.7939L35.5872 30.1516L35.4076 30.7386L35.6724 30.3746L36.3136 29.4686ZM37.9568 25.3088L38.0931 24.9882L38.234 24.6862L38.378 24.4121L38.4493 24.2913L38.5205 24.1829L38.6475 24.0187L38.7884 23.8638L38.9402 23.7182L39.1028 23.5819L39.2732 23.455L39.4497 23.3403L39.6309 23.235L39.8152 23.1421L39.998 23.0662L40.1792 22.9996L40.3573 22.9454L40.5292 22.9021L40.6949 22.8711L40.8529 22.8556L40.9272 22.8525H40.9985L41.0681 22.8571L41.1332 22.8664L41.0527 23.2087L40.9489 23.568L40.8265 23.9366L40.6856 24.3098L40.5307 24.68L40.365 25.0424L40.19 25.3878L40.0073 25.713L39.9175 25.8539L39.8137 25.9856L39.6975 26.1095L39.5705 26.2256L39.4327 26.3309L39.2871 26.4285L39.1338 26.5152L38.9758 26.5927L38.8117 26.6593L38.6444 26.715L38.4756 26.7599L38.3052 26.7924L38.1364 26.8126L37.9692 26.8203L37.8035 26.8157L37.6439 26.7986L37.5758 26.7909H37.5123L37.455 26.794L37.4023 26.8017L37.2227 26.8405L37.184 26.8451L37.1452 26.8435L37.1267 26.8405L37.1081 26.8358L37.0895 26.8281L37.0709 26.8203L37.0523 26.8079L37.0337 26.794L36.995 26.7568L36.9548 26.7073L36.9129 26.6438L36.6744 26.2426L36.4328 25.8059L36.2145 25.3599L36.1215 25.1431L36.0441 24.9324L35.9806 24.7094L35.9264 24.4725L35.8505 23.9691L35.8118 23.4395L35.8025 22.9067L35.8164 22.3894L35.8505 21.9062L35.8954 21.4772L35.9496 21.1241L36.5335 22.2051L36.8417 22.82L37.1391 23.4937L37.1902 23.6284L37.2351 23.7709L37.2769 23.9196L37.3141 24.076L37.3466 24.2386L37.3745 24.4043L37.4178 24.7512L37.4457 25.1322L37.4519 25.4667L37.4426 25.7997L37.424 26.1761L37.393 26.7924L37.5588 26.3665L37.9568 25.3088ZM38.5561 20.5914L38.5979 20.2429L38.6522 19.9084L38.7141 19.6017L38.7497 19.4639L38.7884 19.3369L38.8659 19.1402L38.9572 18.9466L39.0641 18.7577L39.1834 18.5765L39.3119 18.4015L39.4497 18.2342L39.5938 18.0778L39.744 17.9307L39.8973 17.8006L40.0537 17.6798L40.2086 17.5698L40.3635 17.4738L40.5137 17.3933L40.6593 17.3267L40.7987 17.2787L40.8653 17.2616L40.9303 17.2492L40.9458 17.6024L40.9443 17.9787L40.9272 18.3705L40.8947 18.7716L40.8467 19.1743L40.7863 19.5723L40.7119 19.958L40.6252 20.3265L40.5772 20.4892L40.5137 20.6487L40.4363 20.8051L40.3464 20.9569L40.2442 21.1025L40.1312 21.2418L40.0088 21.3735L39.8772 21.4974L39.7378 21.6135L39.5938 21.7188L39.4435 21.8164L39.2902 21.9016L39.1338 21.9744L38.9758 22.0348L38.8163 22.0828L38.6583 22.1169L38.5918 22.1308L38.5314 22.1509L38.4771 22.1726L38.4276 22.1974L38.2681 22.2903L38.2309 22.3074L38.1953 22.3166L38.1767 22.3197L38.1581 22.3213H38.138L38.1178 22.3182L38.0962 22.312L38.0745 22.3058L38.028 22.2826L37.9754 22.247L37.9181 22.2005L37.5804 21.8923L37.232 21.5516L37.0632 21.375L36.9021 21.1954L36.755 21.0157L36.6233 20.8392L36.501 20.6456L36.3864 20.4365L36.1788 19.9781L35.9977 19.4856L35.8443 18.9792L35.7173 18.4789L35.6198 18.0066L35.5485 17.5822L35.5036 17.2276L36.3539 18.0763L36.8154 18.5657L37.2815 19.1154L37.3667 19.227L37.4488 19.3493L37.5293 19.4794L37.6068 19.6172L37.6827 19.7613L37.7539 19.913L37.8886 20.2305L38.0187 20.5852L38.1147 20.9042L38.1968 21.2248L38.2805 21.5903L38.4183 22.1897L38.4617 21.7312L38.5561 20.5914ZM38.0977 15.9003L38.0513 15.5518L38.0187 15.2142L38.0032 14.9014V14.7574L38.0079 14.6242L38.0327 14.412L38.0729 14.1998L38.1287 13.9876L38.1968 13.777L38.2774 13.571L38.3687 13.3697L38.4679 13.1761L38.5747 12.9903L38.6909 12.8184L38.8101 12.6573L38.9325 12.5071L39.0564 12.3692L39.1803 12.2469L39.3042 12.14L39.4265 12.0533L39.4869 12.0177L39.5458 11.9867L39.6495 12.3212L39.7424 12.6836L39.823 13.0662L39.8927 13.4611L39.9484 13.8622L39.9887 14.2633L40.015 14.6582L40.0243 15.0377L40.0197 15.208L39.998 15.3799L39.9624 15.5518L39.9144 15.7238L39.8524 15.8941L39.7781 16.0614L39.6929 16.224L39.5969 16.382L39.4931 16.5337L39.38 16.6793L39.2608 16.8156L39.1338 16.9426L39.0006 17.0588L38.8643 17.1641L38.7234 17.257L38.5794 17.336L38.519 17.37L38.4648 17.4057L38.4198 17.4444L38.378 17.4816L38.2479 17.6194L38.217 17.6457L38.1844 17.6658L38.1659 17.6736L38.1488 17.6813L38.1287 17.686L38.1086 17.6891L38.0869 17.6906L38.0636 17.6891L38.0125 17.6813L37.9552 17.6628L37.8871 17.6333L37.486 17.4366L37.0647 17.2105L36.8587 17.0897L36.659 16.9643L36.4716 16.8357L36.3012 16.7041L36.1355 16.5539L35.9729 16.3866L35.6569 16.0072L35.3596 15.5859L35.0839 15.1445L34.8377 14.7001L34.6239 14.2742L34.4489 13.887L34.3173 13.5586L35.3472 14.1255L35.9156 14.4616L36.2067 14.6489L36.5025 14.8534L36.6125 14.937L36.7209 15.0299L36.8309 15.1306L36.9408 15.2406L37.0492 15.3583L37.1561 15.4822L37.3667 15.7485L37.5804 16.0521L37.7523 16.3293L37.9103 16.6143L38.0838 16.941L38.3656 17.4785L38.2929 17.0231L38.0977 15.9003ZM36.2795 11.3177L36.1634 11.0172L36.0627 10.7229L35.9806 10.4457L35.9496 10.3172L35.9249 10.1964L35.9016 9.99969L35.8923 9.79836L35.897 9.59393L35.9125 9.3895L35.9403 9.18352L35.9791 8.98064L36.0271 8.7824L36.0828 8.58881L36.1494 8.40606L36.2222 8.23106L36.2996 8.06535L36.3802 7.91202L36.4654 7.76954L36.5536 7.64409L36.645 7.53414L36.6915 7.48767L36.7379 7.44431L36.9021 7.71843L37.0632 8.02043L37.218 8.34257L37.3652 8.68019L37.5015 9.0271L37.6238 9.37556L37.7322 9.72247L37.822 10.0601L37.8546 10.215L37.8716 10.3745L37.8778 10.5371L37.87 10.7044L37.8515 10.8716L37.8205 11.0404L37.7787 11.2077L37.7276 11.3734L37.6672 11.536L37.5959 11.694L37.5185 11.8473L37.4318 11.9929L37.3388 12.1307L37.2382 12.2593L37.1313 12.377L37.0198 12.4838L36.9718 12.5303L36.9331 12.5752L36.899 12.6201L36.8711 12.665L36.7828 12.8215L36.7612 12.8524L36.7364 12.8803L36.7225 12.8912L36.707 12.902L36.6915 12.9113L36.6744 12.919L36.6543 12.9252L36.6342 12.9299L36.5862 12.9361L36.5304 12.9345L36.4638 12.9252L36.0611 12.8493L35.6353 12.7533L35.4231 12.696L35.2171 12.6341L35.022 12.5659L34.8408 12.4916L34.6596 12.3987L34.4784 12.2887L34.1144 12.0285L33.7567 11.7265L33.4159 11.3982L33.1 11.0621L32.8166 10.7338L32.5765 10.4318L32.3876 10.1701L33.433 10.4178L34.0137 10.5774L34.3157 10.6718L34.6239 10.7802L34.7401 10.8283L34.8593 10.884L34.9786 10.9475L35.1009 11.0172L35.2217 11.0946L35.3456 11.1798L35.468 11.2696L35.5903 11.3657L35.8474 11.584L36.0611 11.79L36.2656 12.0053L36.4901 12.2546L36.8587 12.665L36.6961 12.2748L36.2795 11.3177ZM33.6978 7.70604L33.498 7.46135L33.3153 7.2182L33.1573 6.98434L33.0892 6.87283L33.0319 6.76597L32.9513 6.58787L32.8832 6.40202L32.8259 6.20688L32.781 6.00555L32.7469 5.80267L32.7221 5.59669L32.7082 5.39226L32.7051 5.18938L32.7144 4.99269L32.7314 4.8022L32.7546 4.6179L32.7872 4.44444L32.8259 4.28028L32.8723 4.13005L32.925 3.99532L32.956 3.93492L32.9869 3.87761L33.2239 4.08049L33.4655 4.30971L33.7086 4.56215L33.9471 4.83007L34.1779 5.11194L34.3978 5.4L34.6023 5.69116L34.7881 5.98077L34.864 6.11551L34.9275 6.26109L34.9817 6.41441L35.0235 6.57393L35.0545 6.73964L35.0762 6.91L35.0855 7.08191L35.087 7.25692L35.0762 7.43192L35.0576 7.60693L35.0282 7.77883L34.9894 7.94609L34.9414 8.10871L34.8841 8.26513L34.8191 8.41536L34.7447 8.55474L34.7138 8.61514L34.689 8.67244L34.6704 8.72665L34.6565 8.77776L34.6193 8.95586L34.6084 8.99303L34.593 9.0271L34.5837 9.04259L34.5728 9.05807L34.5604 9.07201L34.545 9.08595L34.5295 9.09834L34.5109 9.11073L34.4675 9.13241L34.4133 9.14945L34.3483 9.16494L33.944 9.23308L33.512 9.28883L33.2951 9.30897L33.0814 9.32136L32.877 9.32445L32.6834 9.31671L32.4852 9.29193L32.2792 9.25011L31.8579 9.12931L31.4289 8.9667L31.0092 8.77466L30.6097 8.56558L30.2442 8.35341L29.9267 8.14898L29.6711 7.96778L30.7351 7.84078L31.3329 7.78967L31.6473 7.77574L31.971 7.77109L32.0949 7.77574L32.2234 7.78658L32.3566 7.80516L32.4929 7.82994L32.6323 7.86246L32.7732 7.89963L32.9157 7.943L33.0597 7.99101L33.3679 8.10871L33.6312 8.22796L33.8883 8.3627L34.1764 8.52067L34.6456 8.78085L34.3761 8.46801L33.6978 7.70604ZM30.7196 5.36593L30.5013 5.18473L30.2984 5.00043L30.1187 4.81923L30.0397 4.7325L29.97 4.64733L29.8694 4.50329L29.7795 4.34842L29.6975 4.18426L29.6247 4.01235L29.5612 3.8358L29.507 3.65615L29.4621 3.47495L29.4264 3.29375L29.4032 3.11564L29.3877 2.94064L29.38 2.77183V2.60921L29.3893 2.45589L29.4063 2.31186L29.4342 2.18022L29.4497 2.12137L29.4698 2.06406L29.7145 2.2019L29.9685 2.36297L30.2271 2.54417L30.4842 2.73931L30.7367 2.94838L30.9798 3.16675L31.2106 3.38977L31.4227 3.61433L31.5126 3.72119L31.5931 3.83889L31.6659 3.96744L31.7294 4.10218L31.7836 4.24621L31.8285 4.39488L31.8657 4.54821L31.8951 4.70463L31.9137 4.8626L31.923 5.02366L31.9245 5.18318L31.9168 5.34115L31.8997 5.49602L31.8734 5.6478L31.8393 5.79338L31.7944 5.93276L31.7758 5.99161L31.7635 6.04891L31.7557 6.10002L31.7511 6.14958L31.7464 6.31684L31.7418 6.35246L31.734 6.38499L31.7278 6.40202L31.7201 6.41751L31.7108 6.433L31.7015 6.44694L31.6876 6.46242L31.6736 6.47636L31.638 6.50269L31.5931 6.52902L31.5358 6.55535L31.1842 6.69163L30.8063 6.82327L30.6143 6.88213L30.4254 6.93323L30.2411 6.9735L30.0661 7.00293L29.8833 7.01686L29.6928 7.01841L29.2948 6.98899L28.8844 6.92239L28.4771 6.82947L28.0853 6.71641L27.7229 6.59406L27.4054 6.47017L27.1467 6.35556L28.0822 6.04272L28.6103 5.88475L28.8906 5.81196L29.1802 5.74846L29.2917 5.72988L29.4094 5.71594L29.5318 5.7082L29.6572 5.7051L29.7873 5.70665L29.9205 5.71439L30.0552 5.72523L30.1931 5.74227L30.4889 5.79028L30.7444 5.84913L30.9953 5.92037L31.2787 6.0102L31.7418 6.15578L31.4491 5.92502L30.7196 5.36593ZM27.5029 3.66389L27.3186 3.50902L27.1467 3.3526L26.9934 3.19927L26.9268 3.12494L26.868 3.05369L26.7828 2.93135L26.7053 2.79971L26.6357 2.66187L26.5753 2.51629L26.521 2.36606L26.4746 2.21274L26.4359 2.05942L26.4064 1.90609L26.3879 1.75587L26.3739 1.60719L26.3677 1.46471V1.32687L26.3755 1.19678L26.391 1.07443L26.4126 0.964474L26.4266 0.913367L26.4436 0.865356L26.6511 0.98151L26.8664 1.1178L27.0848 1.27112L27.3031 1.43683L27.5169 1.61494L27.7229 1.79923L27.918 1.98818L28.0976 2.17867L28.1735 2.27004L28.2417 2.36916L28.3036 2.47757L28.3578 2.59218L28.4043 2.71298L28.443 2.83842L28.474 2.96852L28.4972 3.10171L28.5142 3.23644L28.5235 3.37273V3.50747L28.5173 3.64221L28.5034 3.77385L28.4817 3.90239L28.4507 4.02629L28.4136 4.14399L28.3981 4.1951L28.3873 4.24156L28.3811 4.28647L28.378 4.32674L28.3733 4.46922L28.3702 4.49865L28.3625 4.52807L28.3578 4.54046L28.3516 4.5544L28.3439 4.56679L28.3346 4.57918L28.3238 4.59157L28.3114 4.60396L28.2819 4.62719L28.2432 4.64887L28.1952 4.67056L27.8963 4.78671L27.5757 4.89822L27.4131 4.94778L27.252 4.98959L27.0972 5.02521L26.9485 5.04999L26.7936 5.06238L26.6326 5.06393L26.2949 5.03915L25.948 4.98185L25.6011 4.90286L25.2697 4.80684L24.963 4.70308L24.6951 4.59777L24.4752 4.5002L25.2666 4.23537L25.7142 4.10218L25.9511 4.04023L26.1974 3.98602L26.2918 3.97054L26.3925 3.95815L26.4963 3.95195L26.6031 3.94885L26.7131 3.95195L26.8246 3.95815L27.0554 3.98138L27.3062 4.02164L27.4162 4.04642L27.5231 4.07275L27.7368 4.13315L27.9768 4.20904L28.3687 4.33139L28.1209 4.13625L27.5029 3.66389ZM18.5823 38.7284L18.2122 38.6742L17.8544 38.6386L17.6841 38.6277L17.5214 38.6231L17.3697 38.6246L17.2272 38.6324L17.0026 38.6649L16.7781 38.7176L16.5535 38.7888L16.332 38.8755L16.1137 38.9778L15.9015 39.0924L15.6971 39.2194L15.5019 39.3541L15.3223 39.4997L15.1519 39.6499L14.9924 39.8032L14.8484 39.9581L14.7198 40.1145L14.6083 40.2694L14.5169 40.4227L14.4798 40.497L14.4472 40.5714L14.8034 40.6968L15.1891 40.8083L15.5964 40.9044L16.0161 40.9864L16.4435 41.0515L16.8694 41.0979L17.2876 41.1243L17.6903 41.132L17.8715 41.1243L18.0527 41.0964L18.2354 41.0499L18.4182 40.9864L18.5963 40.9075L18.7728 40.8145L18.9463 40.7061L19.112 40.5869L19.2715 40.4552L19.4248 40.3127L19.5673 40.1625L19.702 40.003L19.8244 39.8373L19.9344 39.6654L20.0304 39.4904L20.1125 39.3107L20.1481 39.2348L20.1852 39.1682L20.224 39.1109L20.2642 39.0598L20.4083 38.8957L20.4361 38.857L20.4578 38.8151L20.4656 38.795L20.4733 38.7718L20.4779 38.7485L20.481 38.7222V38.668L20.4718 38.6045L20.4516 38.5317L20.4206 38.4481L20.2069 37.951L19.9622 37.4306L19.6958 36.9288L19.558 36.698L19.4171 36.4874L19.256 36.283L19.0764 36.0832L18.6706 35.6945L18.2199 35.329L17.7476 34.9929L17.2737 34.6909L16.8199 34.4307L16.4064 34.217L16.0564 34.0575L16.6681 35.3321L17.0321 36.0336L17.4549 36.7584L17.5447 36.8932L17.6438 37.0295L17.7538 37.1642L17.8715 37.2989L17.9969 37.4321L18.1285 37.5638L18.4135 37.8209L18.7387 38.0826L19.0345 38.2932L19.3396 38.4884L19.6881 38.699L20.2596 39.0443L19.7764 38.9592L18.5823 38.7284ZM14.5727 37.1596L14.2444 37.0388L13.9253 36.935L13.772 36.8932L13.6264 36.856L13.487 36.8281L13.3569 36.808L13.1463 36.7941L12.9326 36.7987L12.7173 36.8204L12.5005 36.8576L12.2852 36.9071L12.0731 36.9706L11.8671 37.0465L11.6673 37.1317L11.4799 37.2293L11.2987 37.333L11.1299 37.4414L10.9735 37.5545L10.8294 37.6722L10.704 37.7914L10.5956 37.9122L10.5491 37.9726L10.5073 38.0346L10.8109 38.2173L11.1423 38.3939L11.4969 38.5596L11.8655 38.7145L12.2419 38.8554L12.6229 38.9809L12.9976 39.0862L13.3631 39.1713L13.5289 39.1992L13.6992 39.2085L13.8727 39.2023L14.0492 39.1806L14.2242 39.1435L14.4008 39.0924L14.5758 39.0273L14.7461 38.9499L14.9134 38.8616L15.076 38.7625L15.2309 38.6525L15.3796 38.5348L15.5174 38.4078L15.646 38.2731L15.7637 38.1322L15.8674 37.985L15.9123 37.9231L15.9572 37.8689L16.0022 37.824L16.0471 37.7852L16.205 37.6629L16.236 37.6335L16.2639 37.6009L16.2747 37.5824L16.2856 37.5638L16.2933 37.5421L16.3011 37.5204L16.3088 37.4693L16.3104 37.4104L16.3042 37.3408L16.2902 37.2587L16.1772 36.7662L16.0409 36.2443L15.8829 35.7363L15.7946 35.4993L15.7017 35.281L15.5886 35.0641L15.4586 34.8473L15.1535 34.4152L14.805 33.9955L14.4302 33.5991L14.0492 33.232L13.6791 32.9083L13.3384 32.6342L13.0472 32.4205L13.3941 33.6982L13.6078 34.4075L13.8727 35.1478L13.9315 35.2887L13.9997 35.4312L14.0771 35.5752L14.1607 35.7192L14.2537 35.8648L14.3528 36.0104L14.5696 36.3L14.8205 36.602L15.0559 36.8514L15.3006 37.0868L15.5825 37.3454L16.0455 37.7698L15.6196 37.5978L14.5727 37.1596ZM11.0695 35.4374L10.7721 35.2469L10.4779 35.0734L10.3369 34.9975L10.2007 34.9294L10.0706 34.8706L9.94667 34.8225L9.74379 34.7621L9.53471 34.7172L9.31944 34.6894L9.10107 34.677H8.88115L8.66123 34.6925L8.44441 34.7188L8.23224 34.7575L8.02936 34.8102L7.83422 34.8721L7.64837 34.9402L7.47182 35.0161L7.31075 35.0982L7.16362 35.1865L7.03508 35.281L6.97778 35.329L6.92512 35.3801L7.18686 35.6263L7.47801 35.8741L7.79086 36.1157L8.12228 36.3511L8.46455 36.5741L8.81146 36.7817L9.15837 36.9691L9.49909 37.1348L9.65551 37.1983L9.82122 37.2463L9.99158 37.2788L10.1681 37.2974L10.3478 37.3005L10.529 37.2896L10.7117 37.2664L10.8945 37.2293L11.0757 37.1797L11.2538 37.1193L11.4257 37.048L11.593 36.9644L11.754 36.8715L11.9042 36.7693L12.0467 36.6578L12.1768 36.537L12.2326 36.4859L12.2868 36.444L12.3394 36.41L12.3905 36.3821L12.5686 36.2985L12.6058 36.2768L12.6383 36.2505L12.6523 36.235L12.6662 36.2195L12.6786 36.2009L12.6894 36.1808L12.6987 36.1575L12.708 36.1328L12.7204 36.0755L12.7282 36.0058L12.7297 35.9221L12.7142 35.4142L12.6817 34.8752L12.6244 34.3409L12.5841 34.09L12.5346 33.8546L12.4664 33.6176L12.3797 33.376L12.1644 32.8851L11.9042 32.3973L11.6131 31.9233L11.3111 31.4804L11.0122 31.0793L10.7319 30.7355L10.4872 30.4614L10.5801 31.7871L10.6544 32.5289L10.7706 33.3125L10.8016 33.4628L10.8418 33.6176L10.8883 33.7772L10.944 33.9382L11.006 34.1008L11.0741 34.265L11.2306 34.5964L11.4195 34.948L11.6007 35.2453L11.7943 35.5303L12.0204 35.8478L12.3921 36.3666L12.0096 36.1033L11.0695 35.4374ZM8.16565 32.7147L7.90391 32.5041L7.64682 32.3121L7.52138 32.2253L7.39903 32.1479L7.28288 32.0798L7.17137 32.0209L6.98862 31.9435L6.79658 31.88L6.59834 31.832L6.39391 31.7963L6.18793 31.7747L5.98195 31.7654L5.77597 31.7669L5.57464 31.7809L5.38105 31.8103L5.19366 31.8475L5.01246 31.8924L4.8421 31.9435L4.68258 32.0039L4.537 32.0705L4.40846 32.1448L4.3496 32.1851L4.29695 32.2269L4.51996 32.4855L4.76931 32.7457L5.04188 33.0059L5.32994 33.2599L5.63039 33.5046L5.93704 33.7353L6.24369 33.946L6.54878 34.1365L6.68972 34.2123L6.83994 34.2743L6.99636 34.3223L7.15898 34.3579L7.32624 34.3796L7.49815 34.3889L7.67006 34.3858L7.84506 34.3703L8.01697 34.344L8.18888 34.3053L8.35769 34.2557L8.5203 34.1953L8.67827 34.1256L8.83004 34.0451L8.97098 33.9553L9.10417 33.8561L9.16147 33.8143L9.21568 33.7803L9.26833 33.7539L9.31789 33.7338L9.4929 33.6749L9.52852 33.6579L9.56104 33.6362L9.57498 33.6238L9.59047 33.6099L9.60285 33.5944L9.61524 33.5758L9.62609 33.5557L9.63693 33.534L9.65396 33.4814L9.66635 33.4163L9.67564 33.3389L9.70662 32.8619L9.72365 32.3539L9.71746 31.8506L9.70197 31.6121L9.67719 31.3875L9.63383 31.1583L9.57498 30.9229L9.41701 30.4428L9.21722 29.958L8.98801 29.4857L8.74487 29.0396L8.50017 28.6339L8.26941 28.2823L8.06498 28.0004L8.034 29.2503L8.0371 29.9518L8.07582 30.6968L8.09131 30.8408L8.11454 30.9895L8.14396 31.1428L8.18113 31.2977L8.2245 31.4572L8.2756 31.6182L8.39176 31.945L8.53734 32.2935L8.67982 32.5893L8.83624 32.8758L9.01899 33.1964L9.32099 33.7199L8.98647 33.4333L8.16565 32.7147ZM5.6815 29.4686L5.47242 29.1992L5.26335 28.9467L5.05892 28.7252L4.9598 28.6292L4.86533 28.544L4.70271 28.4217L4.52926 28.3117L4.34651 28.2142L4.15602 28.129L3.96088 28.0562L3.76264 27.9958L3.56286 27.9462L3.36307 27.9091L3.16793 27.8874L2.97744 27.875L2.79159 27.8734L2.61504 27.8812L2.44778 27.8998L2.29291 27.9292L2.22012 27.9478L2.15043 27.9695L2.08538 27.9927L2.02498 28.0206L2.18605 28.3272L2.37344 28.6447L2.58097 28.9653L2.80708 29.2843L3.04558 29.5972L3.29338 29.8992L3.54737 30.1826L3.80291 30.4443L3.92371 30.5543L4.05535 30.6518L4.19783 30.7386L4.3496 30.8129L4.50757 30.8764L4.67174 30.9291L4.84055 30.9693L5.014 30.9988L5.18746 31.0158L5.36247 31.022L5.53592 31.0158L5.70783 30.9988L5.87664 30.9709L6.0408 30.9306L6.19877 30.8795L6.349 30.816L6.4125 30.7897L6.4729 30.7711L6.5302 30.7587L6.58286 30.751L6.7656 30.737L6.80432 30.7293L6.83994 30.7169L6.85698 30.7091L6.87401 30.6983L6.89105 30.6875L6.90654 30.672L6.92202 30.6565L6.93596 30.6364L6.96384 30.5899L6.99172 30.531L7.0165 30.4567L7.14814 30.0014L7.27358 29.512L7.3758 29.0195L7.41297 28.7825L7.4362 28.558L7.44394 28.3241L7.43775 28.081L7.38664 27.5745L7.29681 27.0526L7.17601 26.5369L7.03508 26.0413L6.88486 25.5844L6.73618 25.1849L6.59834 24.8596L6.29944 26.0676L6.15076 26.7506L6.02841 27.4847L6.01293 27.6287L6.00364 27.779L5.99899 27.9354L6.00209 28.0965L6.00983 28.2606L6.02377 28.4294L6.06713 28.7764L6.13373 29.1511L6.20961 29.4764L6.29944 29.7939L6.4094 30.1516L6.58905 30.7386L6.32422 30.3746L5.6815 29.4686ZM4.03831 25.3088L3.90357 24.9882L3.76264 24.6862L3.61861 24.4121L3.54737 24.2913L3.47613 24.1829L3.34913 24.0187L3.2082 23.8638L3.05643 23.7182L2.89381 23.5819L2.7219 23.455L2.54535 23.3403L2.36415 23.235L2.1814 23.1421L1.99865 23.0662L1.81745 22.9996L1.63935 22.9454L1.46744 22.9021L1.30173 22.8711L1.14376 22.8556L1.06942 22.8525H0.99818L0.930036 22.8571L0.86499 22.8664L0.945524 23.2087L1.04774 23.568L1.17009 23.9366L1.31102 24.3098L1.46434 24.68L1.63006 25.0424L1.80506 25.3878L1.98781 25.713L2.07764 25.8539L2.1814 25.9856L2.29755 26.1095L2.42455 26.2256L2.56238 26.3309L2.70796 26.4285L2.86129 26.5152L3.02081 26.5927L3.18497 26.6593L3.35223 26.715L3.52104 26.7599L3.6914 26.7924L3.86021 26.8126L4.02747 26.8203L4.19318 26.8157L4.3527 26.7986L4.42085 26.7909H4.48434L4.54165 26.794L4.5943 26.8017L4.77395 26.8405L4.81267 26.8451L4.85139 26.8435L4.86997 26.8405L4.88856 26.8358L4.90714 26.8281L4.92573 26.8203L4.94431 26.8079L4.9629 26.794L5.00162 26.7568L5.04188 26.7073L5.0837 26.6438L5.3222 26.2426L5.5638 25.8059L5.78217 25.3599L5.87509 25.1431L5.95253 24.9324L6.01603 24.7094L6.07023 24.4725L6.14457 23.9691L6.18484 23.4395L6.19413 22.9067L6.18019 22.3894L6.14612 21.9062L6.09966 21.4772L6.047 21.1241L5.46313 22.2051L5.15339 22.82L4.85604 23.4937L4.80648 23.6284L4.76002 23.7709L4.7182 23.9196L4.68258 24.076L4.65006 24.2386L4.62218 24.4043L4.57881 24.7512L4.55094 25.1322L4.54474 25.4667L4.55404 25.7997L4.57262 26.1761L4.60359 26.7924L4.43633 26.3665L4.03831 25.3088ZM3.44051 20.5914L3.39714 20.2429L3.34449 19.9084L3.28099 19.6017L3.24537 19.4639L3.20665 19.3369L3.13076 19.1402L3.03784 18.9466L2.93098 18.7577L2.81328 18.5765L2.68473 18.4015L2.5469 18.2342L2.40287 18.0778L2.25264 17.9307L2.09777 17.8006L1.9429 17.6798L1.78648 17.5698L1.63315 17.4738L1.48293 17.3933L1.33735 17.3267L1.19796 17.2787L1.13137 17.2616L1.06632 17.2492L1.05084 17.6024L1.05239 17.9787L1.06942 18.3705L1.10194 18.7716L1.14841 19.1743L1.21035 19.5723L1.28314 19.958L1.36987 20.3265L1.41788 20.4892L1.48138 20.6487L1.55882 20.8051L1.65019 20.9569L1.75241 21.1025L1.86546 21.2418L1.98781 21.3735L2.11945 21.4974L2.25884 21.6135L2.40287 21.7188L2.55309 21.8164L2.70642 21.9016L2.86284 21.9744L3.02081 22.0348L3.18032 22.0828L3.33829 22.1169L3.40489 22.1308L3.46529 22.1509L3.51949 22.1726L3.5675 22.1974L3.72857 22.2903L3.76419 22.3074L3.80136 22.3166L3.81994 22.3197L3.83853 22.3213H3.85866L3.87879 22.3182L3.89893 22.312L3.92061 22.3058L3.96862 22.2826L4.01973 22.247L4.07703 22.2005L4.41465 21.8923L4.76311 21.5516L4.93192 21.375L5.09299 21.1954L5.24012 21.0157L5.37176 20.8392L5.49411 20.6456L5.60871 20.4365L5.81779 19.9781L5.99899 19.4856L6.15231 18.9792L6.27776 18.4789L6.37688 18.0066L6.44812 17.5822L6.49303 17.2276L5.64278 18.0763L5.18127 18.5657L4.71355 19.1154L4.62992 19.227L4.54629 19.3493L4.46731 19.4794L4.38987 19.6172L4.31398 19.7613L4.24119 19.913L4.10646 20.2305L3.97791 20.5852L3.88189 20.9042L3.79981 21.2248L3.71618 21.5903L3.57834 22.1897L3.53498 21.7312L3.44051 20.5914ZM3.89893 15.9003L3.94539 15.5518L3.97791 15.2142L3.9934 14.9014V14.7574L3.98721 14.6242L3.96243 14.412L3.92216 14.1998L3.86795 13.9876L3.79981 13.777L3.71928 13.571L3.6279 13.3697L3.52724 13.1761L3.42037 12.9903L3.30577 12.8184L3.18652 12.6573L3.06417 12.5071L2.94027 12.3692L2.81637 12.2469L2.69248 12.14L2.57013 12.0533L2.50973 12.0177L2.45088 11.9867L2.34711 12.3212L2.25419 12.6836L2.17211 13.0662L2.10396 13.4611L2.04821 13.8622L2.0064 14.2633L1.98007 14.6582L1.97077 15.0377L1.97697 15.208L1.9971 15.3799L2.03272 15.5518L2.08228 15.7238L2.14423 15.8941L2.21857 16.0614L2.30375 16.224L2.39822 16.382L2.50353 16.5337L2.61659 16.6793L2.73584 16.8156L2.86284 16.9426L2.99448 17.0588L3.13231 17.1641L3.2717 17.257L3.41573 17.336L3.47768 17.37L3.53033 17.4057L3.57679 17.4444L3.61706 17.4816L3.7487 17.6194L3.77968 17.6457L3.8122 17.6658L3.82924 17.6736L3.84782 17.6813L3.86641 17.686L3.88654 17.6891L3.90822 17.6906L3.93145 17.6891L3.98256 17.6813L4.03986 17.6628L4.108 17.6333L4.51067 17.4366L4.93192 17.2105L5.1379 17.0897L5.33769 16.9643L5.52508 16.8357L5.69544 16.7041L5.86115 16.5539L6.02377 16.3866L6.33971 16.0072L6.63706 15.5859L6.91118 15.1445L7.15743 14.7001L7.37115 14.2742L7.54771 13.887L7.67935 13.5586L6.64945 14.1255L6.08107 14.4616L5.78836 14.6489L5.49256 14.8534L5.3826 14.937L5.27419 15.0299L5.16423 15.1306L5.05427 15.2406L4.94586 15.3583L4.839 15.4822L4.62992 15.7485L4.4162 16.0521L4.24429 16.3293L4.08632 16.6143L3.91287 16.941L3.62945 17.4785L3.70224 17.0231L3.89893 15.9003ZM5.71557 11.3177L5.83173 11.0172L5.93394 10.7229L6.01603 10.4457L6.047 10.3172L6.07023 10.1964L6.09346 9.99969L6.10275 9.79836L6.09966 9.59393L6.08262 9.3895L6.05629 9.18352L6.01757 8.98064L5.96956 8.7824L5.91381 8.58881L5.84721 8.40606L5.77443 8.23106L5.69699 8.06535L5.61646 7.91202L5.53128 7.76954L5.443 7.64409L5.35162 7.53414L5.30516 7.48767L5.2587 7.44431L5.09454 7.71843L4.93347 8.02043L4.7786 8.34257L4.63147 8.68019L4.49518 9.0271L4.37284 9.37556L4.26443 9.72247L4.1746 10.0601L4.14208 10.215L4.12504 10.3745L4.11885 10.5371L4.12659 10.7044L4.14517 10.8716L4.17615 11.0404L4.21796 11.2077L4.26907 11.3734L4.32947 11.536L4.39916 11.694L4.47815 11.8473L4.56488 11.9929L4.6578 12.1307L4.75692 12.2593L4.86378 12.377L4.97529 12.4838L5.0233 12.5303L5.06356 12.5752L5.09609 12.6201L5.12551 12.665L5.21379 12.8215L5.23547 12.8524L5.26025 12.8803L5.27419 12.8912L5.28813 12.902L5.30516 12.9113L5.3222 12.919L5.34078 12.9252L5.36247 12.9299L5.40893 12.9361L5.46623 12.9345L5.53282 12.9252L5.93549 12.8493L6.36139 12.7533L6.57201 12.696L6.77799 12.6341L6.97313 12.5659L7.15433 12.4916L7.33553 12.3987L7.51673 12.2887L7.88223 12.0285L8.23843 11.7265L8.5807 11.3982L8.89664 11.0621L9.18005 10.7338L9.42011 10.4318L9.60905 10.1701L8.56367 10.4178L7.98135 10.5774L7.67935 10.6718L7.37115 10.7802L7.255 10.8283L7.1373 10.884L7.0165 10.9475L6.8957 11.0172L6.77335 11.0946L6.64945 11.1798L6.5271 11.2696L6.40475 11.3657L6.14921 11.584L5.93549 11.79L5.73106 12.0053L5.5065 12.2546L5.1379 12.665L5.30052 12.2748L5.71557 11.3177ZM8.29729 7.70604L8.49707 7.46135L8.67982 7.2182L8.83934 6.98434L8.90748 6.87283L8.96478 6.76597L9.04532 6.58787L9.11346 6.40202L9.17076 6.20688L9.21568 6.00555L9.24975 5.80267L9.27453 5.59669L9.28847 5.39226L9.29156 5.18938L9.28227 4.99269L9.26523 4.8022L9.242 4.6179L9.20948 4.44444L9.17076 4.28028L9.1243 4.13005L9.07164 3.99532L9.04067 3.93492L9.0097 3.87761L8.77274 4.08049L8.53114 4.30971L8.28799 4.56215L8.04949 4.83007L7.81873 5.11194L7.59881 5.4L7.39438 5.69116L7.20854 5.98077L7.13265 6.11551L7.0676 6.26109L7.01495 6.41441L6.97313 6.57393L6.94061 6.73964L6.92048 6.91L6.90964 7.08191V7.25692L6.91893 7.43192L6.93906 7.60693L6.96849 7.77883L7.0072 7.94609L7.05521 8.10871L7.11097 8.26513L7.17756 8.41536L7.2519 8.55474L7.28288 8.61514L7.30766 8.67244L7.32624 8.72665L7.34018 8.77776L7.37735 8.95586L7.38819 8.99303L7.40368 9.0271L7.41297 9.04259L7.42381 9.05807L7.4362 9.07201L7.45169 9.08595L7.46717 9.09834L7.48576 9.11073L7.52912 9.13241L7.58333 9.14945L7.64837 9.16494L8.05259 9.23308L8.48468 9.28883L8.7015 9.30897L8.91522 9.32136L9.11965 9.32445L9.31324 9.31671L9.51148 9.29193L9.71746 9.25011L10.1387 9.12931L10.5677 8.9667L10.9874 8.77466L11.3854 8.56558L11.7509 8.35341L12.0684 8.14898L12.324 7.96778L11.26 7.84078L10.6622 7.78967L10.3478 7.77574L10.0241 7.77109L9.90021 7.77574L9.77167 7.78658L9.64002 7.80516L9.50374 7.82994L9.36435 7.86246L9.22342 7.89963L9.08094 7.943L8.93691 7.99101L8.62871 8.10871L8.36543 8.22796L8.10834 8.3627L7.82028 8.52067L7.35102 8.78085L7.6205 8.46801L8.29729 7.70604ZM11.2755 5.36593L11.4938 5.18473L11.6967 5.00043L11.8779 4.81923L11.9554 4.7325L12.025 4.64733L12.1257 4.50329L12.2171 4.34842L12.2992 4.18426L12.372 4.01235L12.4355 3.8358L12.4897 3.65615L12.5346 3.47495L12.5702 3.29375L12.5934 3.11564L12.6074 2.94064L12.6151 2.77183V2.60921L12.6058 2.45589L12.5888 2.31186L12.5625 2.18022L12.5454 2.12137L12.5268 2.06406L12.2821 2.2019L12.0281 2.36297L11.7695 2.54417L11.5124 2.73931L11.26 2.94838L11.0168 3.16675L10.7861 3.38977L10.5739 3.61433L10.4841 3.72119L10.4035 3.83889L10.3308 3.96744L10.2673 4.10218L10.213 4.24621L10.1681 4.39488L10.131 4.54821L10.1015 4.70463L10.083 4.8626L10.0721 5.02366L10.0706 5.18318L10.0783 5.34115L10.0953 5.49602L10.1217 5.6478L10.1557 5.79338L10.2007 5.93276L10.2192 5.99161L10.2316 6.04891L10.2409 6.10002L10.244 6.14958L10.2502 6.31684L10.2549 6.35246L10.2626 6.38499L10.2688 6.40202L10.2765 6.41751L10.2843 6.433L10.2951 6.44694L10.3075 6.46242L10.3215 6.47636L10.3571 6.50269L10.4035 6.52902L10.4593 6.55535L10.8109 6.69163L11.1903 6.82327L11.3823 6.88213L11.5713 6.93323L11.7556 6.9735L11.9306 7.00293L12.1133 7.01686L12.3038 7.01841L12.7018 6.98899L13.1122 6.92239L13.5196 6.82947L13.9114 6.71641L14.2722 6.59406L14.5897 6.47017L14.8484 6.35556L13.9145 6.04272L13.3864 5.88475L13.1061 5.81196L12.8149 5.74846L12.7034 5.72988L12.5872 5.71594L12.4649 5.7082L12.3394 5.7051L12.2093 5.70665L12.0762 5.71439L11.9414 5.72523L11.8036 5.74227L11.5078 5.79028L11.2522 5.84913L11.0013 5.92037L10.7179 6.0102L10.2549 6.15578L10.546 5.92502L11.2755 5.36593ZM14.4937 3.66389L14.678 3.50902L14.8515 3.3526L15.0032 3.19927L15.0698 3.12494L15.1287 3.05369L15.2139 2.93135L15.2913 2.79971L15.3594 2.66187L15.4214 2.51629L15.4756 2.36606L15.5205 2.21274L15.5592 2.05942L15.5886 1.90609L15.6088 1.75587L15.6212 1.60719L15.6289 1.46471V1.32687L15.6212 1.19678L15.6057 1.07443L15.584 0.964474L15.5701 0.913367L15.553 0.865356L15.3455 0.98151L15.1302 1.1178L14.9119 1.27112L14.6935 1.43683L14.4798 1.61494L14.2722 1.79923L14.0771 1.98818L13.8974 2.17867L13.8216 2.27004L13.7534 2.36916L13.6915 2.47757L13.6373 2.59218L13.5924 2.71298L13.5521 2.83842L13.5211 2.96852L13.4979 3.10171L13.4808 3.23644L13.4731 3.37273L13.4716 3.50747L13.4777 3.64221L13.4932 3.77385L13.5149 3.90239L13.5459 4.02629L13.5831 4.14399L13.5985 4.1951L13.6094 4.24156L13.6156 4.28647L13.6187 4.32674L13.6233 4.46922L13.6264 4.49865L13.6342 4.52807L13.6388 4.54046L13.645 4.5544L13.6528 4.56679L13.662 4.57918L13.6729 4.59157L13.6853 4.60396L13.7147 4.62719L13.7534 4.64887L13.8014 4.67056L14.0988 4.78671L14.4209 4.89822L14.5835 4.94778L14.743 4.98959L14.8995 5.02521L15.0481 5.04999L15.203 5.06238L15.3641 5.06393L15.7017 5.03915L16.0486 4.98185L16.394 4.90286L16.727 4.80684L17.0336 4.70308L17.3015 4.59777L17.5214 4.5002L16.7301 4.23537L16.2809 4.10218L16.044 4.04023L15.7977 3.98602L15.7033 3.97054L15.6041 3.95815L15.5004 3.95195L15.3935 3.94885L15.2836 3.95195L15.1705 3.95815L14.9397 3.98138L14.6904 4.02164L14.5789 4.04642L14.4736 4.07275L14.2598 4.13315L14.0198 4.20904L13.628 4.33139L13.8742 4.13625L14.4937 3.66389Z" fill="url(#paint0_linear_5670_1310)"/>
<defs>
<linearGradient id="paint0_linear_5670_1310" x1="-0.43903" y1="22.4978" x2="42.4357" y2="19.4995" gradientUnits="userSpaceOnUse">
<stop stop-color="#A55906"/>
<stop offset="1" stop-color="#FECD51"/>
</linearGradient>
</defs>
</svg>
